<?xml version="1.0" encoding="UTF-8"?>
<svg id="Capa_1" xmlns="http://www.w3.org/2000/svg" version="1.1" xmlns:xlink="http://www.w3.org/1999/xlink" viewBox="0 0 1309 149">
  <!-- Generator: Adobe Illustrator 29.4.0, SVG Export Plug-In . SVG Version: 2.1.0 Build 152)  -->
  <defs>
    <style>
      .st0 {
        fill: #f9f9fa;
      }

      .st1 {
        fill: #f3afbe;
      }

      .st2, .st3 {
        fill: none;
      }

      .st3 {
        stroke: #1d1d1b;
        stroke-miterlimit: 10;
        stroke-width: 8.99px;
      }

      .st4 {
        fill: #77cbf3;
      }

      .st5 {
        fill: #1d1d1b;
      }

      .st6 {
        clip-path: url(#clippath);
      }
    </style>
    <clipPath id="clippath">
      <path class="st2" d="M1303,95.41c0-5.95-1.22-11.36-3.65-16.22-.92-1.85-1.98-3.59-3.17-5.23h-24.24c1.95,1.06,3.77,2.32,5.41,3.81,5.61,5.14,8.41,11.83,8.41,20.07s-2.44,14.44-7.31,19.66h19.54c.48-.92.94-1.86,1.35-2.83,2.43-5.68,3.65-12.1,3.65-19.26Z"/>
    </clipPath>
  </defs>
  <g>
    <path class="st5" d="M8,140.83V13.09h57.18c5.27,0,10.64.51,16.12,1.52,5.47,1.01,10.41,2.81,14.8,5.37,4.39,2.57,7.97,5.95,10.75,10.14,2.77,4.19,4.16,9.53,4.16,16.02,0,8.92-3.28,15.82-9.83,20.68-6.56,4.87-16.66,7.64-30.31,8.31v1.01c8.38,0,15.54.44,21.49,1.32,5.95.88,10.81,2.47,14.6,4.76,3.78,2.3,6.52,5.41,8.21,9.33,1.69,3.92,2.53,8.85,2.53,14.8,0,6.89-1.49,12.57-4.46,17.03-2.98,4.46-6.79,7.98-11.46,10.54-4.66,2.57-9.9,4.36-15.71,5.37-5.81,1.01-11.56,1.52-17.23,1.52H8ZM26.25,70.67h37.31c3.38,0,6.79-.41,10.24-1.22,3.45-.81,6.59-2.09,9.43-3.85,2.84-1.75,5.14-4.09,6.89-7,1.76-2.91,2.64-6.39,2.64-10.44s-.88-7.4-2.64-10.04c-1.76-2.64-4.06-4.7-6.89-6.18-2.84-1.49-5.98-2.54-9.43-3.14-3.45-.61-6.86-.91-10.24-.91H26.25v42.78ZM26.25,126.03h41.97c3.65,0,7.33-.27,11.05-.81,3.72-.54,7.03-1.55,9.93-3.04,2.91-1.49,5.3-3.61,7.2-6.39,1.89-2.77,2.84-6.45,2.84-11.05s-.95-8.18-2.84-11.15c-1.89-2.97-4.29-5.37-7.2-7.2-2.91-1.82-6.22-3.11-9.93-3.85-3.72-.74-7.4-1.12-11.05-1.12H26.25v44.61Z"/>
    <path class="st5" d="M187.84,140.83V13.09h90.23v15.81h-71.98v41.16h66.91v13.58h-66.91v41.36h74.41v15.82h-92.66Z"/>
    <path class="st5" d="M383.91,140.83v-44.4l-49.68-83.33h18.45l39.94,67.11,41.97-67.11h18.05l-50.69,83.33v44.4h-18.05Z"/>
    <path class="st5" d="M500.29,76.96c0-11.76,1.79-21.76,5.37-30.01,3.58-8.24,8.45-14.97,14.6-20.17,6.15-5.2,13.35-9.02,21.59-11.46,8.24-2.43,17.1-3.65,26.56-3.65s18.31,1.22,26.56,3.65c8.24,2.43,15.41,6.25,21.49,11.46,6.08,5.21,10.88,11.93,14.4,20.17,3.51,8.25,5.27,18.25,5.27,30.01s-1.76,20.92-5.27,29.1c-3.52,8.18-8.31,14.97-14.4,20.38-6.08,5.41-13.25,9.4-21.49,11.96-8.25,2.57-17.1,3.85-26.56,3.85s-18.32-1.29-26.56-3.85c-8.25-2.57-15.44-6.55-21.59-11.96-6.15-5.4-11.02-12.2-14.6-20.38-3.58-8.18-5.37-17.87-5.37-29.1ZM568.42,126.03c7.03,0,13.55-.94,19.57-2.84,6.01-1.89,11.25-4.83,15.71-8.82,4.46-3.99,7.94-9.09,10.44-15.31,2.5-6.22,3.75-13.58,3.75-22.1,0-9.05-1.25-16.73-3.75-23.01-2.5-6.29-5.98-11.35-10.44-15.21-4.46-3.85-9.7-6.62-15.71-8.31-6.02-1.69-12.54-2.53-19.57-2.53s-13.58.85-19.67,2.53c-6.08,1.69-11.35,4.46-15.82,8.31-4.46,3.85-7.98,8.89-10.54,15.11-2.57,6.22-3.85,13.92-3.85,23.11,0,8.65,1.28,16.05,3.85,22.2,2.57,6.15,6.08,11.22,10.54,15.21,4.46,3.99,9.73,6.93,15.82,8.82,6.08,1.89,12.64,2.84,19.67,2.84Z"/>
    <path class="st5" d="M812.74,140.83h-28.39l-63.26-114.56v114.56h-18.25V13.09h28.79l62.85,113.14V13.09h18.25v127.74Z"/>
    <path class="st5" d="M889.99,140.83V13.09h57.79c9.6,0,18.38,1.42,26.36,4.26,7.97,2.84,14.8,6.99,20.48,12.47,5.68,5.48,10.1,12.17,13.28,20.07,3.17,7.91,4.76,16.93,4.76,27.07s-1.59,19.16-4.76,27.07c-3.18,7.91-7.6,14.6-13.28,20.07-5.68,5.47-12.5,9.63-20.48,12.47-7.98,2.84-16.76,4.26-26.36,4.26h-57.79ZM908.24,125.01h38.52c7.3,0,13.89-1.08,19.77-3.24,5.88-2.16,10.88-5.27,15-9.33,4.12-4.05,7.3-9.05,9.53-15,2.23-5.95,3.35-12.77,3.35-20.48s-1.11-14.53-3.35-20.48c-2.23-5.95-5.41-10.95-9.53-15-4.12-4.05-9.12-7.16-15-9.33-5.88-2.16-12.47-3.24-19.77-3.24h-38.52v96.11Z"/>
    <path class="st5" d="M1084.63,102.71c.41,4.46,1.01,8.21,1.82,11.25.81,3.04,2.09,5.47,3.85,7.3,1.75,1.83,4.19,3.14,7.3,3.95,3.11.81,7.1,1.22,11.96,1.22,3.65,0,7.13-.51,10.44-1.52,3.31-1.01,6.25-2.53,8.82-4.56,2.57-2.03,4.59-4.53,6.08-7.5,1.49-2.97,2.23-6.42,2.23-10.34,0-4.46-.71-8.21-2.13-11.25-1.42-3.04-3.31-5.47-5.68-7.3-2.37-1.82-5.14-3.11-8.31-3.85-3.18-.74-6.52-1.11-10.04-1.11h-10.54v-13.38l10.95-.2c2.84,0,5.54-.37,8.11-1.12,2.57-.74,4.87-1.93,6.89-3.55,2.03-1.62,3.61-3.72,4.76-6.29,1.15-2.57,1.72-5.68,1.72-9.33,0-3.24-.61-6.08-1.82-8.52-1.22-2.43-2.84-4.46-4.87-6.08-2.03-1.62-4.39-2.87-7.1-3.75-2.71-.88-5.54-1.32-8.52-1.32-9.19,0-15.68,2.37-19.46,7.1-3.79,4.73-5.88,11.42-6.29,20.07h-15.61c0-12.7,3.35-22.81,10.04-30.31,6.69-7.5,16.59-11.25,29.7-11.25,5.54,0,10.75.61,15.61,1.83,4.87,1.22,9.12,3.14,12.77,5.78,3.65,2.64,6.55,6.08,8.72,10.34,2.16,4.26,3.24,9.43,3.24,15.51s-1.29,11.15-3.85,15.61c-2.57,4.46-6.69,7.84-12.37,10.14,7.03,1.89,12.3,5.54,15.82,10.95,3.51,5.41,5.27,11.69,5.27,18.86s-1.18,12.88-3.55,17.94c-2.37,5.07-5.61,9.3-9.73,12.67-4.13,3.38-8.96,5.92-14.5,7.6-5.54,1.69-11.49,2.53-17.84,2.53-13.38,0-23.49-2.97-30.31-8.92-6.83-5.95-10.24-15.68-10.24-29.2h16.63Z"/>
    <path d="M1289.31,66.72c-4.26-3.45-9.23-6.15-14.9-8.11-5.68-1.96-11.76-2.94-18.25-2.94-5.41,0-10.31.58-14.7,1.72-4.39,1.15-8.75,3.21-13.08,6.18l5.47-35.08h64.07v-15.41h-76.03l-9.73,68.13,15.61.81c6.62-7.97,15.68-11.96,27.17-11.96,6.6,0,12.26,1.31,17,3.89h24.24c-1.94-2.68-4.23-5.1-6.87-7.24Z"/>
    <path d="M1277.25,118.73c-5.68,5.41-13.52,8.11-23.52,8.11-8.11,0-14.8-1.75-20.07-5.27-5.27-3.51-8.45-8.92-9.53-16.22h-16.42c.41,5.68,1.82,10.71,4.26,15.11,2.43,4.39,5.61,8.11,9.53,11.15,3.92,3.04,8.48,5.34,13.69,6.89,5.2,1.56,10.85,2.33,16.93,2.33,7.7,0,14.67-1.01,20.88-3.04,6.22-2.03,11.56-4.97,16.02-8.82,3.69-3.19,6.68-7.02,8.99-11.46h-19.54c-.39.41-.78.82-1.2,1.22Z"/>
    <g class="st6">
      <g>
        <rect class="st4" x="1285.52" y="24.04" width="9.13" height="107" transform="translate(1212.54 1367.61) rotate(-90)"/>
        <rect class="st1" x="1285.52" y="33.16" width="9.13" height="107" transform="translate(1203.42 1376.74) rotate(-90)"/>
        <rect class="st0" x="1285.52" y="42.27" width="9.13" height="107" transform="translate(1194.31 1385.85) rotate(-90)"/>
        <rect class="st1" x="1285.52" y="51.41" width="9.13" height="107" transform="translate(1185.17 1394.99) rotate(-90)"/>
        <rect class="st4" x="1285.52" y="60.54" width="9.13" height="107" transform="translate(1176.04 1404.12) rotate(-90)"/>
      </g>
    </g>
  </g>
  <line class="st3" x1="8" y1="137.43" x2="1300.79" y2="137.43"/>
</svg>