<?xml version="1.0" encoding="UTF-8"?>
<svg id="Layer_1" xmlns="http://www.w3.org/2000/svg" xmlns:xlink="http://www.w3.org/1999/xlink" version="1.1" viewBox="0 0 1152 648">
  <!-- Generator: Adobe Illustrator 29.4.0, SVG Export Plug-In . SVG Version: 2.1.0 Build 152)  -->
  <defs>
    <style>
      .st0 {
        fill: none;
      }

      .st1 {
        fill: #f3afbe;
      }

      .st2 {
        fill: #1d1d1b;
      }

      .st3 {
        fill: #f8fafb;
      }

      .st4 {
        clip-path: url(#clippath);
      }

      .st5 {
        fill: #7acbf2;
      }
    </style>
    <clipPath id="clippath">
      <path class="st0" d="M1041.91,337.62c0-4.42-.9-8.43-2.71-12.05-.69-1.37-1.47-2.67-2.35-3.89h-18c1.45.79,2.8,1.72,4.02,2.83,4.16,3.82,6.25,8.79,6.25,14.91s-1.81,10.73-5.43,14.6h14.51c.35-.68.7-1.38,1.01-2.1,1.81-4.22,2.71-8.98,2.71-14.3Z"/>
    </clipPath>
  </defs>
  <g>
    <path class="st2" d="M80.24,371.35v-94.86h42.46c3.91,0,7.9.38,11.97,1.13,4.07.75,7.73,2.08,10.99,3.99,3.26,1.91,5.92,4.42,7.98,7.53,2.06,3.11,3.09,7.08,3.09,11.89,0,6.63-2.43,11.74-7.3,15.36-4.87,3.61-12.37,5.67-22.51,6.17v.75c6.22,0,11.54.33,15.96.98,4.42.65,8.03,1.83,10.84,3.54,2.81,1.71,4.84,4.02,6.1,6.93,1.25,2.91,1.88,6.58,1.88,10.99,0,5.12-1.11,9.34-3.31,12.65-2.21,3.31-5.04,5.92-8.51,7.83-3.46,1.91-7.35,3.24-11.67,3.99-4.32.75-8.58,1.13-12.8,1.13h-45.17ZM93.79,319.25h27.7c2.51,0,5.04-.3,7.6-.9,2.56-.6,4.89-1.56,7-2.86,2.11-1.3,3.81-3.03,5.12-5.19,1.3-2.16,1.96-4.74,1.96-7.75s-.65-5.5-1.96-7.45c-1.31-1.96-3.01-3.49-5.12-4.59-2.11-1.1-4.44-1.88-7-2.33-2.56-.45-5.1-.68-7.6-.68h-27.7v31.77ZM93.79,360.35h31.17c2.71,0,5.44-.2,8.21-.6,2.76-.4,5.22-1.15,7.38-2.26,2.16-1.1,3.94-2.68,5.35-4.74,1.4-2.06,2.11-4.79,2.11-8.21s-.7-6.07-2.11-8.28c-1.41-2.21-3.19-3.99-5.35-5.35-2.16-1.35-4.62-2.31-7.38-2.86-2.76-.55-5.5-.83-8.21-.83h-31.17v33.12Z"/>
    <path class="st2" d="M213.79,371.35v-94.86h67v11.74h-53.45v30.57h49.69v10.09h-49.69v30.72h55.26v11.74h-68.81Z"/>
    <path class="st2" d="M359.39,371.35v-32.97l-36.89-61.88h13.7l29.66,49.84,31.17-49.84h13.4l-37.64,61.88v32.97h-13.4Z"/>
    <path class="st2" d="M445.82,323.92c0-8.73,1.33-16.16,3.99-22.28,2.66-6.12,6.27-11.12,10.84-14.98,4.57-3.86,9.91-6.7,16.04-8.51,6.12-1.81,12.7-2.71,19.72-2.71s13.6.9,19.72,2.71c6.12,1.81,11.44,4.64,15.96,8.51,4.52,3.87,8.08,8.86,10.69,14.98,2.61,6.12,3.91,13.55,3.91,22.28s-1.31,15.53-3.91,21.61c-2.61,6.07-6.17,11.12-10.69,15.13-4.52,4.02-9.84,6.98-15.96,8.88-6.12,1.91-12.7,2.86-19.72,2.86s-13.6-.96-19.72-2.86c-6.12-1.91-11.47-4.87-16.04-8.88-4.57-4.01-8.18-9.06-10.84-15.13-2.66-6.07-3.99-13.27-3.99-21.61ZM496.41,360.35c5.22,0,10.06-.7,14.53-2.11,4.47-1.4,8.36-3.59,11.67-6.55,3.31-2.96,5.9-6.75,7.75-11.37,1.86-4.62,2.79-10.09,2.79-16.41,0-6.72-.93-12.42-2.79-17.09-1.86-4.67-4.44-8.43-7.75-11.29s-7.2-4.92-11.67-6.17c-4.47-1.25-9.31-1.88-14.53-1.88s-10.09.63-14.61,1.88c-4.52,1.26-8.43,3.31-11.74,6.17-3.31,2.86-5.92,6.6-7.83,11.22-1.91,4.62-2.86,10.34-2.86,17.16,0,6.43.95,11.92,2.86,16.49,1.91,4.57,4.52,8.33,7.83,11.29,3.31,2.96,7.23,5.15,11.74,6.55,4.52,1.41,9.38,2.11,14.61,2.11Z"/>
    <path class="st2" d="M677.84,371.35h-21.08l-46.98-85.07v85.07h-13.55v-94.86h21.38l46.68,84.02v-84.02h13.55v94.86Z"/>
    <path class="st2" d="M735.2,371.35v-94.86h42.91c7.13,0,13.65,1.05,19.57,3.16,5.92,2.11,10.99,5.19,15.21,9.26,4.22,4.07,7.5,9.03,9.86,14.91,2.36,5.87,3.54,12.57,3.54,20.1s-1.18,14.23-3.54,20.1c-2.36,5.87-5.65,10.84-9.86,14.91-4.22,4.07-9.29,7.15-15.21,9.26-5.92,2.11-12.45,3.16-19.57,3.16h-42.91ZM748.76,359.6h28.61c5.42,0,10.31-.8,14.68-2.41,4.37-1.6,8.08-3.91,11.14-6.93,3.06-3.01,5.42-6.72,7.08-11.14,1.66-4.42,2.48-9.49,2.48-15.21s-.83-10.79-2.48-15.21c-1.66-4.42-4.02-8.13-7.08-11.14-3.06-3.01-6.78-5.32-11.14-6.93-4.37-1.6-9.26-2.41-14.68-2.41h-28.61v71.37Z"/>
    <path class="st2" d="M879.75,343.04c.3,3.31.75,6.1,1.35,8.36s1.55,4.07,2.86,5.42c1.3,1.36,3.11,2.33,5.42,2.94,2.31.6,5.27.9,8.88.9,2.71,0,5.29-.38,7.75-1.13,2.46-.75,4.64-1.88,6.55-3.39,1.91-1.51,3.41-3.36,4.52-5.57,1.1-2.21,1.66-4.77,1.66-7.68,0-3.31-.53-6.1-1.58-8.36-1.05-2.26-2.46-4.07-4.22-5.42-1.76-1.35-3.82-2.31-6.17-2.86-2.36-.55-4.84-.83-7.45-.83h-7.83v-9.94l8.13-.15c2.11,0,4.11-.28,6.02-.83,1.91-.55,3.61-1.43,5.12-2.63,1.51-1.2,2.68-2.76,3.54-4.67.85-1.91,1.28-4.22,1.28-6.93,0-2.41-.45-4.52-1.35-6.32-.9-1.81-2.11-3.31-3.61-4.52-1.51-1.2-3.26-2.13-5.27-2.79-2.01-.65-4.12-.98-6.32-.98-6.83,0-11.65,1.76-14.45,5.27-2.81,3.51-4.37,8.48-4.67,14.91h-11.59c0-9.43,2.48-16.94,7.45-22.51,4.97-5.57,12.32-8.36,22.06-8.36,4.11,0,7.98.45,11.59,1.36s6.78,2.33,9.49,4.29c2.71,1.96,4.87,4.52,6.47,7.68,1.6,3.16,2.41,7,2.41,11.52s-.96,8.28-2.86,11.59c-1.91,3.31-4.97,5.82-9.18,7.53,5.22,1.41,9.13,4.12,11.74,8.13,2.61,4.02,3.91,8.68,3.91,14s-.88,9.56-2.63,13.33c-1.76,3.76-4.17,6.9-7.23,9.41-3.06,2.51-6.65,4.39-10.77,5.65-4.12,1.26-8.53,1.88-13.25,1.88-9.94,0-17.44-2.21-22.51-6.63-5.07-4.42-7.6-11.64-7.6-21.68h12.35Z"/>
    <path class="st2" d="M1031.75,316.31c-3.16-2.56-6.85-4.57-11.07-6.02-4.22-1.45-8.73-2.18-13.55-2.18-4.02,0-7.66.43-10.92,1.28-3.26.85-6.5,2.39-9.71,4.59l4.07-26.05h47.58v-11.44h-56.46l-7.23,50.59,11.59.6c4.92-5.92,11.64-8.88,20.18-8.88,4.9,0,9.1.98,12.62,2.89h18c-1.44-1.99-3.14-3.79-5.1-5.37Z"/>
    <path class="st2" d="M1022.79,354.93c-4.22,4.02-10.04,6.02-17.47,6.02-6.02,0-10.99-1.3-14.91-3.91-3.91-2.61-6.27-6.63-7.08-12.05h-12.2c.3,4.22,1.35,7.96,3.16,11.22,1.81,3.26,4.16,6.02,7.08,8.28,2.91,2.26,6.3,3.97,10.16,5.12,3.86,1.16,8.06,1.73,12.57,1.73,5.72,0,10.89-.75,15.51-2.26,4.62-1.51,8.58-3.69,11.89-6.55,2.74-2.37,4.96-5.21,6.67-8.51h-14.51c-.29.31-.58.61-.89.91Z"/>
    <g class="st4">
      <g>
        <rect class="st5" x="1028.92" y="284.62" width="6.78" height="79.46" transform="translate(707.97 1356.66) rotate(-90)"/>
        <rect class="st1" x="1028.92" y="291.39" width="6.78" height="79.46" transform="translate(701.19 1363.43) rotate(-90)"/>
        <rect class="st3" x="1028.92" y="298.16" width="6.78" height="79.46" transform="translate(694.43 1370.2) rotate(-90)"/>
        <rect class="st1" x="1028.92" y="304.94" width="6.78" height="79.46" transform="translate(687.64 1376.99) rotate(-90)"/>
        <rect class="st5" x="1028.92" y="311.72" width="6.78" height="79.46" transform="translate(680.86 1383.76) rotate(-90)"/>
      </g>
    </g>
  </g>
  <rect class="st2" x="80.24" y="364.33" width="960.03" height="8.99"/>
</svg>